<svg xmlns="http://www.w3.org/2000/svg" viewBox="0 0 521.88 286"><defs><style>.cls-1{fill:#db4783;}</style></defs><g id="图层_2" data-name="图层 2"><g id="图层_1-2" data-name="图层 1"><circle class="cls-1" cx="21" cy="21" r="21"/><path class="cls-1" d="M459,76a7.27,7.27,0,0,0-5.44,2.53,10.65,10.65,0,0,0-2,3.39C429.34,139.1,393.45,171.81,357.88,190c-28.56,14.61-50.23,19.64-69,22a278.32,278.32,0,0,1-27.94,2A278.32,278.32,0,0,1,233,212c-18.77-2.36-40.44-7.39-69-22-35.57-18.19-71.45-50.9-93.62-108.07a10.68,10.68,0,0,0-2-3.39A7.27,7.27,0,0,0,62.92,76a7.07,7.07,0,0,0-5,1.78A6.85,6.85,0,0,0,56,83c.55,14.5,6.7,105.74,74.68,160.36,48.65,39.09,115.85,42.34,129.09,42.6v0h2.32v0c13.24-.26,80.44-3.51,129.09-42.6,68-54.62,74.13-145.86,74.69-160.36a6.92,6.92,0,0,0-2-5.23A7.09,7.09,0,0,0,459,76Z"/><circle class="cls-1" cx="500.88" cy="21" r="21"/></g></g></svg>